<svg xmlns="http://www.w3.org/2000/svg" xmlns:xlink="http://www.w3.org/1999/xlink" width="77.132" height="34.067" viewBox="0 0 77.132 34.067">
  <defs>
    <linearGradient id="linear-gradient" x1="1" y1="0.417" x2="0" y2="1" gradientUnits="objectBoundingBox">
      <stop offset="0" stop-color="#141c4f"/>
      <stop offset="1" stop-color="#002b7f"/>
    </linearGradient>
    <clipPath id="clip-path">
      <path id="Path_254" data-name="Path 254" d="M524.129,188.418a.608.608,0,0,0,.3,0,.4.4,0,0,1,.414.031.38.38,0,0,0,.252.072c.363-.039,1.2-.025,1.428-.309a1.62,1.62,0,0,1,.192-.207c.369-.169-1.243-1.043-1.351-1.045a1.813,1.813,0,0,1-.369-.038Zm10.667.924a1.669,1.669,0,0,1,.669-.207c.277-.042.247-.11.475-.307.148-.128.639-.049.758-.206a.815.815,0,0,1,.387,0c.028.046.149.067.192.1.306.249.505.132.859.206a3.5,3.5,0,0,0,.655.106c.137-.087.227-.064.295.1a8.582,8.582,0,0,0,.95.512.474.474,0,0,0,.22-.007c.1-.018.207-.035.256.007.018.015.655.272.655.3s-.059.09-.089.108a1.771,1.771,0,0,1-1.336,0,.862.862,0,0,0-.279.049.908.908,0,0,1-.288.049c-.03-.013-.176.079-.19.1-.08.116-.386.18-.525.2a1,1,0,0,1-.258-.017.74.74,0,0,0-.323,0,3.142,3.142,0,0,1-2.134-.075.642.642,0,0,0-.15.053c-.195.075-.538.15-.9-.37-.123-.174-.5-.172-.794-.169a1.069,1.069,0,0,1-.334-.023c-.142-.065-.155-.084-.092-.208.039-.078.194-.223.281-.206a5.094,5.094,0,0,0,.565,0,.473.473,0,0,1,.293,0l.009,0a.439.439,0,0,0,.172-.1m3.714-8.49a.706.706,0,0,0-.374.21c-.187.318-.565.266-.77.411-.048.034-.655.981-.762,1.025-.021.008-.225.4-1.088.4-.109,0-.492.212-.576.209-.638-.025-1.479-.555-1.658-.515a2.858,2.858,0,0,1-1.053.1c-.034-.005-1.475.077-1.521.107a.575.575,0,0,1-.384,0c-.3-.127-.523-.712-.851-.719a2.572,2.572,0,0,0-.272.016,1.033,1.033,0,0,1-.53-.037c-.219-.1-.188-.508-.393-.818l-1.289,2.23c.384.162.71.555,1.148.56a1.036,1.036,0,0,0,.519-.2c.239-.146.45-.292.626-.117a2.9,2.9,0,0,0,.283.2,5.949,5.949,0,0,0,2.585-.243c.28-.063.18.129-.054.321-.285.235-.772.471-1,.238a2.875,2.875,0,0,0-1.051.163c-.379.095-.716.189-.731.183a.726.726,0,0,0-.381,0,4.512,4.512,0,0,0-1.15.456c-.05.034-.545,0-.6.038a1.85,1.85,0,0,1-.855.278,1.229,1.229,0,0,0-.4-.047l-.639,1.106a3.642,3.642,0,0,1,.564-.24c.237-.013.4.243.608.243.516,0,.917-.779,1.4-.755.2.01.536.493.566.512a2.5,2.5,0,0,0,1.6.434c.192-.011.317-.023.4.075s-.025.405-.1.511c-.145.2-.151.746,2.1.511a4.4,4.4,0,0,1,1.29.018c1.07.153.432.581-.024.538a4.9,4.9,0,0,0-1.166.162c-.146.118-.462.289-.478.3-.233.234-1.609.491-1.718.619-.033.039.019.157,0,.205-.087.224-.525.2-.927.182a2.363,2.363,0,0,0-.591.012c-.584.154-.583-.181-1.052-.3a.564.564,0,0,0-.28,0,1.715,1.715,0,0,1-.67.106,5.527,5.527,0,0,0-.759-.106c-.514-.225-1.724-.487-2.032-.612l-.1-.039-2.43,4.2a1.046,1.046,0,0,0,.92,1.543h9.838a8.487,8.487,0,0,0-.011-1.433c-.024-.13-.081-.417-.189-.491-.011-.008-.031,0-.051,0a.092.092,0,0,1-.045,0c-.307-.136-.468-.488-.7-.74s-.4-.546-.629-.793c-.143-.154-.525-.38-.621-.567-.04-.08-.1-.285-.043-.355s.237-.064.31-.037c.222.08.214.246.354.451a2.624,2.624,0,0,0,.977.772,2.053,2.053,0,0,0,.354.189.659.659,0,0,0,.316.042c.294-.113-.3-1.633-.074-1.832.053-.047.193.09.245.137s.08.192.141.208a9.537,9.537,0,0,0,1.513.2c.154,0,.556.1.564.252,0,.065-.184.081-.23.129a1.228,1.228,0,0,0-.1,1.123,14.864,14.864,0,0,1,.121,1.816c0,.068-.106.176-.121.242a1.325,1.325,0,0,0,.036.691h10.5a1.046,1.046,0,0,0,1.046-1.046,1.083,1.083,0,0,0-.138-.517l-3.127-5.416a.864.864,0,0,1-.6.039,2.038,2.038,0,0,0-.862,0c-.425.2-.241.4-.945.408-.036,0-.062.093-.095.108a.782.782,0,0,1-.474,0,12.414,12.414,0,0,0-2.569-.516,2.667,2.667,0,0,1-.953,0,.188.188,0,0,0-.039,0c-.02,0-.043.007-.052,0a.106.106,0,0,1,0-.1c.248-.248.776-.14,1.137-.2a2.974,2.974,0,0,1,.736,0,1.937,1.937,0,0,0,1.012-.1c.076-.033.6-.058.727-.1a2.515,2.515,0,0,0,.569-.513c.115-.144.052-.589.191-.71.018-.016.72-.517.754-.518.122-.005.119-.062.143-.084l-.82-1.421c-.05.023-.1.046-.168.071-.813.324-.821.7-.813.74.214,1-.31,1.683-1.253,1.564s-.889-.41-1.559.252a1.493,1.493,0,0,1-1.131.317,3.222,3.222,0,0,1-1.246,0,1.752,1.752,0,0,0-.738.011,1.861,1.861,0,0,1-.881-.011c-.323-.15-1.686-.163-2-.645-.1-.156-.793-.078-1.032-.181-.213-.092.787-.459.85-.51a1.008,1.008,0,0,1,.611-.07,1.259,1.259,0,0,0,.53-.033c.144-.069.895-.054,1.042-.2.054-.054.991-.772,1.223-.591.111.085.421.385.5.386.458,0,.913.28,1.326.1.556-.239.239-.813.952-.813a3.421,3.421,0,0,1,.963-.108c.411.1.657.173.849-.208a1.132,1.132,0,0,1,.1-.2,6.119,6.119,0,0,1,1.677-.219l-.38-.658a1.458,1.458,0,0,1-.918-.158,2.822,2.822,0,0,0-.379-.183c-.21.123-.835.405-.951.193a2.621,2.621,0,0,1,.087-.509c0-.035.273-.488.288-.51a.356.356,0,0,1,.282-.1c.188.059.481-.188.715-.248l-.23-.4a.482.482,0,0,0-.231-.075.3.3,0,0,0-.06.006m-5.271-2.83a1.972,1.972,0,0,1,.426-.075c.222-.019.829-.245.837.4,0,.1.183.2.257.2a1.444,1.444,0,0,0,.19-.008c.144-.015.173-.029.422.125a1.284,1.284,0,0,0,.644.183,3.36,3.36,0,0,0,.372.009c1-.277-.1.586-.215.627a1.529,1.529,0,0,1-.306,0,2.54,2.54,0,0,0-.5,0,1.61,1.61,0,0,1-.429.1c-.317-.064-.229-.064-.441,0-.055.018-.178.115-.213.106-.436-.106-.526.082-.938.1-.15.007-.431-.189-.58-.209a1.015,1.015,0,0,1-.87-.4c-.031-.042-.158.008-.322.058a1.027,1.027,0,0,1-.618.038.96.96,0,0,1-.437-.313,2.225,2.225,0,0,1,.8-.409,1.518,1.518,0,0,0,.286-.1c.262-.393.32-.15.726-.41a.743.743,0,0,1,.375,0,2.276,2.276,0,0,0,.284.023.68.68,0,0,0,.246-.038m-.525-4.455-3.985,6.89a3.253,3.253,0,0,0,.458-.113,2.127,2.127,0,0,1,1.047.247,4.756,4.756,0,0,0,.669.262,7.918,7.918,0,0,0,1.043-.3c.1-.045.482.194.574.2a3.408,3.408,0,0,0,1.079-.05,2.557,2.557,0,0,1,.841-.057c.025,0,1.463.067,1.576.031.08-.025.7-.385.776-.417.2-.085.4-.25.675-.121a2.609,2.609,0,0,0,.669.207.478.478,0,0,1,.278-.094l-3.854-6.669a1.037,1.037,0,0,0-1.846-.014" transform="translate(-521.359 -173.009)" fill="#fff"/>
    </clipPath>
  </defs>
  <g id="Logo_Mobile" data-name="Logo Mobile" transform="translate(-88.365 -69.256)">
    <rect id="Rectangle_31" data-name="Rectangle 31" width="75.783" height="1.125" rx="0.563" transform="translate(89 94.666)" fill="#e50019"/>
    <path id="Union_1" data-name="Union 1" d="M0,8.044c0-.012,0-.378,0-.378A.359.359,0,0,1,.36,7.307H1.711a.362.362,0,0,1,.363.359v.249c0,.491.54.757,1.017.757.494,0,1.029-.266,1.029-.757V6.962a.663.663,0,0,0-.556-.628C1.9,6.074,1.856,4.882,1.848,3.806V3.589H.714A.369.369,0,0,1,.345,3.22V2.274A.369.369,0,0,1,.714,1.9H1.848V.556A.369.369,0,0,1,2.218.187H3.6a.369.369,0,0,1,.369.369V1.9H5.155a.37.37,0,0,1,.369.369V3.22a.369.369,0,0,1-.369.368H3.973V4.1a.645.645,0,0,0,.542.662c1.016.307,1.677.663,1.677,2.105V8.039H6.186a2.861,2.861,0,0,1-3.095,2.633A2.866,2.866,0,0,1,0,8.044Zm44.364,2.627a.36.36,0,0,1-.36-.36V2.757C44,2.266,43.469,2,42.99,2c-.494,0-1.03.266-1.03.757v7.555a.361.361,0,0,1-.361.36H40.245a.361.361,0,0,1-.361-.36V2.757A2.854,2.854,0,0,1,42.99,0a2.849,2.849,0,0,1,3.09,2.757v7.555a.361.361,0,0,1-.361.36Zm-16.2,0a.36.36,0,0,1-.36-.36V2.757c0-.491-.534-.757-1.013-.757-.494,0-1.03.266-1.03.757v7.555a.361.361,0,0,1-.361.36H24.042a.36.36,0,0,1-.36-.36V2.757A2.853,2.853,0,0,1,26.787,0a2.849,2.849,0,0,1,3.09,2.757v7.555a.361.361,0,0,1-.361.36Zm-16.193,0a.36.36,0,0,1-.36-.36V2.757c0-.491-.534-.757-1.013-.757-.494,0-1.03.266-1.03.757v7.555a.361.361,0,0,1-.361.36H7.849a.361.361,0,0,1-.361-.36V2.757A2.855,2.855,0,0,1,10.594,0a2.848,2.848,0,0,1,3.09,2.757v7.555a.361.361,0,0,1-.36.36ZM32.4,7.916l0-.27a.341.341,0,0,1,.341-.341h1.4a.341.341,0,0,1,.341.341v.293c.018.476.544.735,1.014.735.493,0,1.029-.266,1.029-.757V5.9c0-1.168-3.1-3.929-3.1-5.2V.35A.351.351,0,0,1,33.771,0h1.446a.344.344,0,0,1,.332.265,5.288,5.288,0,0,0,.8,1.414c.773,1.111,2.258,2.683,2.258,3.785V7.916a2.865,2.865,0,0,1-3.119,2.756A2.847,2.847,0,0,1,32.4,7.916Zm-16.2,0V7.667a.361.361,0,0,1,.36-.36h1.356a.36.36,0,0,1,.36.36v.27c.017.477.544.736,1.014.736.493,0,1.027-.266,1.028-.756v-.7a.942.942,0,0,0-1.007-.955h-.588V4.383l.573,0a.617.617,0,0,0,.65-.7c0-.959-2.725-2.062-2.725-2.989V.361a.361.361,0,0,1,.36-.36h1.479c.169,0,.22.079.343.277,0,0,.086.129.115.161,1.373,1.483,2.493,1.844,2.493,3.248a1.4,1.4,0,0,1-.93,1.5A2.242,2.242,0,0,1,22.39,7.353l0,.326,0,0v.235c0,.014,0,.028,0,.042v.082l0,0a2.863,2.863,0,0,1-3.1,2.635A2.848,2.848,0,0,1,16.195,7.915Z" transform="translate(89.083 80.149)" fill="#292562" stroke="rgba(0,0,0,0)" stroke-width="1"/>
    <path id="Path_253" data-name="Path 253" d="M524.129,188.418a.608.608,0,0,0,.3,0,.4.4,0,0,1,.414.031.38.38,0,0,0,.252.072c.363-.039,1.2-.025,1.428-.309a1.62,1.62,0,0,1,.192-.207c.369-.169-1.243-1.043-1.351-1.045a1.813,1.813,0,0,1-.369-.038Zm10.667.924a1.669,1.669,0,0,1,.669-.207c.277-.042.247-.11.475-.307.148-.128.639-.049.758-.206a.815.815,0,0,1,.387,0c.028.046.149.067.192.1.306.249.505.132.859.206a3.5,3.5,0,0,0,.655.106c.137-.087.227-.064.295.1a8.582,8.582,0,0,0,.95.512.474.474,0,0,0,.22-.007c.1-.018.207-.035.256.007.018.015.655.272.655.3s-.059.09-.089.108a1.771,1.771,0,0,1-1.336,0,.862.862,0,0,0-.279.049.908.908,0,0,1-.288.049c-.03-.013-.176.079-.19.1-.08.116-.386.18-.525.2a1,1,0,0,1-.258-.017.74.74,0,0,0-.323,0,3.142,3.142,0,0,1-2.134-.075.642.642,0,0,0-.15.053c-.195.075-.538.15-.9-.37-.123-.174-.5-.172-.794-.169a1.069,1.069,0,0,1-.334-.023c-.142-.065-.155-.084-.092-.208.039-.078.194-.223.281-.206a5.094,5.094,0,0,0,.565,0,.473.473,0,0,1,.293,0l.009,0a.439.439,0,0,0,.172-.1m3.714-8.49a.706.706,0,0,0-.374.21c-.187.318-.565.266-.77.411-.048.034-.655.981-.762,1.025-.021.008-.225.4-1.088.4-.109,0-.492.212-.576.209-.638-.025-1.479-.555-1.658-.515a2.858,2.858,0,0,1-1.053.1c-.034-.005-1.475.077-1.521.107a.575.575,0,0,1-.384,0c-.3-.127-.523-.712-.851-.719a2.572,2.572,0,0,0-.272.016,1.033,1.033,0,0,1-.53-.037c-.219-.1-.188-.508-.393-.818l-1.289,2.23c.384.162.71.555,1.148.56a1.036,1.036,0,0,0,.519-.2c.239-.146.45-.292.626-.117a2.9,2.9,0,0,0,.283.2,5.949,5.949,0,0,0,2.585-.243c.28-.063.18.129-.054.321-.285.235-.772.471-1,.238a2.875,2.875,0,0,0-1.051.163c-.379.095-.716.189-.731.183a.726.726,0,0,0-.381,0,4.512,4.512,0,0,0-1.15.456c-.05.034-.545,0-.6.038a1.85,1.85,0,0,1-.855.278,1.229,1.229,0,0,0-.4-.047l-.639,1.106a3.642,3.642,0,0,1,.564-.24c.237-.013.4.243.608.243.516,0,.917-.779,1.4-.755.2.01.536.493.566.512a2.5,2.5,0,0,0,1.6.434c.192-.011.317-.023.4.075s-.025.405-.1.511c-.145.2-.151.746,2.1.511a4.4,4.4,0,0,1,1.29.018c1.07.153.432.581-.024.538a4.9,4.9,0,0,0-1.166.162c-.146.118-.462.289-.478.3-.233.234-1.609.491-1.718.619-.033.039.019.157,0,.205-.087.224-.525.2-.927.182a2.363,2.363,0,0,0-.591.012c-.584.154-.583-.181-1.052-.3a.564.564,0,0,0-.28,0,1.715,1.715,0,0,1-.67.106,5.527,5.527,0,0,0-.759-.106c-.514-.225-1.724-.487-2.032-.612l-.1-.039-2.43,4.2a1.046,1.046,0,0,0,.92,1.543h9.838a8.487,8.487,0,0,0-.011-1.433c-.024-.13-.081-.417-.189-.491-.011-.008-.031,0-.051,0a.092.092,0,0,1-.045,0c-.307-.136-.468-.488-.7-.74s-.4-.546-.629-.793c-.143-.154-.525-.38-.621-.567-.04-.08-.1-.285-.043-.355s.237-.064.31-.037c.222.08.214.246.354.451a2.624,2.624,0,0,0,.977.772,2.053,2.053,0,0,0,.354.189.659.659,0,0,0,.316.042c.294-.113-.3-1.633-.074-1.832.053-.047.193.09.245.137s.08.192.141.208a9.537,9.537,0,0,0,1.513.2c.154,0,.556.1.564.252,0,.065-.184.081-.23.129a1.228,1.228,0,0,0-.1,1.123,14.864,14.864,0,0,1,.121,1.816c0,.068-.106.176-.121.242a1.325,1.325,0,0,0,.036.691h10.5a1.046,1.046,0,0,0,1.046-1.046,1.083,1.083,0,0,0-.138-.517l-3.127-5.416a.864.864,0,0,1-.6.039,2.038,2.038,0,0,0-.862,0c-.425.2-.241.4-.945.408-.036,0-.062.093-.095.108a.782.782,0,0,1-.474,0,12.414,12.414,0,0,0-2.569-.516,2.667,2.667,0,0,1-.953,0,.188.188,0,0,0-.039,0c-.02,0-.043.007-.052,0a.106.106,0,0,1,0-.1c.248-.248.776-.14,1.137-.2a2.974,2.974,0,0,1,.736,0,1.937,1.937,0,0,0,1.012-.1c.076-.033.6-.058.727-.1a2.515,2.515,0,0,0,.569-.513c.115-.144.052-.589.191-.71.018-.016.72-.517.754-.518.122-.005.119-.062.143-.084l-.82-1.421c-.05.023-.1.046-.168.071-.813.324-.821.7-.813.74.214,1-.31,1.683-1.253,1.564s-.889-.41-1.559.252a1.493,1.493,0,0,1-1.131.317,3.222,3.222,0,0,1-1.246,0,1.752,1.752,0,0,0-.738.011,1.861,1.861,0,0,1-.881-.011c-.323-.15-1.686-.163-2-.645-.1-.156-.793-.078-1.032-.181-.213-.092.787-.459.85-.51a1.008,1.008,0,0,1,.611-.07,1.259,1.259,0,0,0,.53-.033c.144-.069.895-.054,1.042-.2.054-.054.991-.772,1.223-.591.111.085.421.385.5.386.458,0,.913.28,1.326.1.556-.239.239-.813.952-.813a3.421,3.421,0,0,1,.963-.108c.411.1.657.173.849-.208a1.132,1.132,0,0,1,.1-.2,6.119,6.119,0,0,1,1.677-.219l-.38-.658a1.458,1.458,0,0,1-.918-.158,2.822,2.822,0,0,0-.379-.183c-.21.123-.835.405-.951.193a2.621,2.621,0,0,1,.087-.509c0-.035.273-.488.288-.51a.356.356,0,0,1,.282-.1c.188.059.481-.188.715-.248l-.23-.4a.482.482,0,0,0-.231-.075.3.3,0,0,0-.06.006m-5.271-2.83a1.972,1.972,0,0,1,.426-.075c.222-.019.829-.245.837.4,0,.1.183.2.257.2a1.444,1.444,0,0,0,.19-.008c.144-.015.173-.029.422.125a1.284,1.284,0,0,0,.644.183,3.36,3.36,0,0,0,.372.009c1-.277-.1.586-.215.627a1.529,1.529,0,0,1-.306,0,2.54,2.54,0,0,0-.5,0,1.61,1.61,0,0,1-.429.1c-.317-.064-.229-.064-.441,0-.055.018-.178.115-.213.106-.436-.106-.526.082-.938.1-.15.007-.431-.189-.58-.209a1.015,1.015,0,0,1-.87-.4c-.031-.042-.158.008-.322.058a1.027,1.027,0,0,1-.618.038.96.96,0,0,1-.437-.313,2.225,2.225,0,0,1,.8-.409,1.518,1.518,0,0,0,.286-.1c.262-.393.32-.15.726-.41a.743.743,0,0,1,.375,0,2.276,2.276,0,0,0,.284.023.68.68,0,0,0,.246-.038m-.525-4.455-3.985,6.89a3.253,3.253,0,0,0,.458-.113,2.127,2.127,0,0,1,1.047.247,4.756,4.756,0,0,0,.669.262,7.918,7.918,0,0,0,1.043-.3c.1-.045.482.194.574.2a3.408,3.408,0,0,0,1.079-.05,2.557,2.557,0,0,1,.841-.057c.025,0,1.463.067,1.576.031.08-.025.7-.385.776-.417.2-.085.4-.25.675-.121a2.609,2.609,0,0,0,.669.207.478.478,0,0,1,.278-.094l-3.854-6.669a1.037,1.037,0,0,0-1.846-.014" transform="translate(-380.898 -103.753)" fill="url(#linear-gradient)"/>
    <path id="Union_2" data-name="Union 2" d="M30.021,4.421a1.458,1.458,0,0,1-.86-.285.968.968,0,0,1-.384-.8V2.519h.54v.814a.453.453,0,0,0,.192.407.831.831,0,0,0,.52.16,2.21,2.21,0,0,0,.758-.129V1.554c0-.184-.132-.409-.747-.552C29.77.938,29.318.695,29.318.29V.084h.521v.11c0,.216.509.338.544.353.59.182.924.5.924.993v2.61l-.108.033a3.95,3.95,0,0,1-1.175.239Zm-6.632,0a1.441,1.441,0,0,1-.855-.285.963.963,0,0,1-.384-.8V2.519h.541v.814a.45.45,0,0,0,.187.407.839.839,0,0,0,.522.16,2.22,2.22,0,0,0,.758-.129V1.554c0-.184-.132-.409-.746-.552-.27-.065-.721-.307-.721-.712V.084h.515v.11c0,.216.514.338.546.353.592.182.924.5.924.993v2.61l-.106.033a3.96,3.96,0,0,1-1.18.239Zm-3.221,0a4.207,4.207,0,0,1-1.237-.189l-.1-.032V.084h.523V3.816a2.888,2.888,0,0,0,.811.1.875.875,0,0,0,.555-.184.518.518,0,0,0,.214-.456V3.05a1.607,1.607,0,0,0-.191-.9l-.1-.106.425-.389.09.123a2.426,2.426,0,0,1,.3,1.275v.2a1.03,1.03,0,0,1-.4.855,1.54,1.54,0,0,1-.9.314Zm-5.481,0h0a4.224,4.224,0,0,1-1.239-.189l-.1-.032V.084h.53V3.816a2.861,2.861,0,0,0,.808.1.878.878,0,0,0,.556-.184.521.521,0,0,0,.214-.456V3.05a1.607,1.607,0,0,0-.191-.9l-.1-.106.421-.389.092.123a2.374,2.374,0,0,1,.307,1.275v.2a1.024,1.024,0,0,1-.4.855,1.537,1.537,0,0,1-.892.314ZM25.83,4.142a.989.989,0,0,1-.4-.853V.281l.1-.029A4.038,4.038,0,0,1,26.784,0a1.491,1.491,0,0,1,.909.3,1.009,1.009,0,0,1,.406.846V2.184a1.042,1.042,0,0,1-.414.862,1.48,1.48,0,0,1-.906.292h-.024a1.535,1.535,0,0,1-.806-.212V3.3a.492.492,0,0,0,.258.469,1.043,1.043,0,0,0,.666.138A1.208,1.208,0,0,0,27.5,3.66l.106-.083.35.338-.114.109a1.563,1.563,0,0,1-1.106.4A1.522,1.522,0,0,1,25.83,4.142Zm.12-3.48V2.63a2.365,2.365,0,0,0,.813.183,1.024,1.024,0,0,0,.577-.183.481.481,0,0,0,.205-.442V1.138A.487.487,0,0,0,27.339.7a.888.888,0,0,0-.562-.174A2.341,2.341,0,0,0,25.95.662ZM6.59,4.175v-3A1.122,1.122,0,0,1,7.856.042H8.964V.555H7.856c-.474,0-.741.228-.741.621V1.66A1.314,1.314,0,0,1,7.9,1.451,1.2,1.2,0,0,1,9.22,2.584v.7a1.189,1.189,0,0,1-1.3,1.133A4.26,4.26,0,0,1,6.59,4.175Zm.525-2.05V3.833a2.746,2.746,0,0,0,.807.1.693.693,0,0,0,.767-.642V2.577c.007-.4-.387-.594-.781-.6A2.256,2.256,0,0,0,7.115,2.125ZM37.831,4.414a1.352,1.352,0,0,1-1.372-1.329V1.18a1.068,1.068,0,0,1,.383-.867A1.327,1.327,0,0,1,37.75.031a1.854,1.854,0,0,1,.56.1,1.092,1.092,0,0,1,.366.249,1.138,1.138,0,0,1,.36-.249,1.881,1.881,0,0,1,.561-.1,1.32,1.32,0,0,1,.91.282,1.062,1.062,0,0,1,.38.867V2.265h-.519V1.193a.547.547,0,0,0-.345-.585.939.939,0,0,0-.709-.045.516.516,0,0,0-.395.4c0,.017,0,.039,0,.067v.957h-.484l0-.957a.554.554,0,0,0-.007-.076.505.505,0,0,0-.39-.39.94.94,0,0,0-.709.045.539.539,0,0,0-.346.573V2.975a.868.868,0,0,0,.917.955l.778-.009c.91,0,1.325-.01,1.581-.288l.091-.1.362.325-.092.1c-.422.46-.981.46-1.911.46C38.706,4.421,38.07,4.414,37.831,4.414Zm22.4.007a1.453,1.453,0,0,1-.857-.281.977.977,0,0,1-.385-.807V2.878h.541v.455a.45.45,0,0,0,.189.407.842.842,0,0,0,.52.161A2.212,2.212,0,0,0,61,3.771V2.617c0-.186-.029-.41-.645-.555a.658.658,0,0,1-.475-.708v-.2h-.617V.64h.617V.084h.518V.64h.615v.518h-.615v.093c0,.3.189.345.225.354.588.182.893.5.893.993V4.149l-.1.033a3.946,3.946,0,0,1-1.178.238Zm5.727-.207a1.285,1.285,0,0,1-.515-.6l-.058-.127.447-.267.068.163a.723.723,0,0,0,.31.348.99.99,0,0,0,.5.125.786.786,0,0,0,.555-.21.739.739,0,0,0,.215-.593V1.09c0-.124-.026-.549-.453-.549s-.454.37-.454.544V2.094H66.01V1.1c0-.189-.03-.559-.456-.559l-.018,0v0h-.37V.023h.387a1.014,1.014,0,0,1,.735.38,1.016,1.016,0,0,1,.735-.38c.757,0,1.006.594,1.006,1.22v1.81a1.466,1.466,0,0,1-.2.747,1.269,1.269,0,0,1-.5.465,1.438,1.438,0,0,1-.637.142A1.414,1.414,0,0,1,65.955,4.213Zm-20.592,0a1.279,1.279,0,0,1-.515-.6l-.058-.127.448-.267.068.163a.723.723,0,0,0,.31.348.99.99,0,0,0,.5.125.788.788,0,0,0,.555-.209.741.741,0,0,0,.212-.594V1.258a.624.624,0,0,0-.22-.5.8.8,0,0,0-.518-.179,1.019,1.019,0,0,0-.457.1.687.687,0,0,0-.261.3l-.086.162-.409-.3.05-.111A1.067,1.067,0,0,1,45.432.2a1.572,1.572,0,0,1,.721-.175,1.342,1.342,0,0,1,.885.317,1.229,1.229,0,0,1,.4.918V3.053a1.468,1.468,0,0,1-.2.747,1.267,1.267,0,0,1-.5.465,1.438,1.438,0,0,1-.637.142A1.412,1.412,0,0,1,45.363,4.213Zm-41.6,0a1.276,1.276,0,0,1-.515-.6l-.056-.127.445-.267.071.163a.687.687,0,0,0,.312.348.977.977,0,0,0,.493.125.794.794,0,0,0,.558-.209.749.749,0,0,0,.209-.594l0-1.795a.63.63,0,0,0-.221-.5A.786.786,0,0,0,4.547.575a1.014,1.014,0,0,0-.457.1.687.687,0,0,0-.261.3l-.084.162-.411-.3L3.382.729A1.063,1.063,0,0,1,3.834.2,1.591,1.591,0,0,1,4.557.023,1.325,1.325,0,0,1,5.439.34a1.209,1.209,0,0,1,.4.918V3.053a1.411,1.411,0,0,1-.2.747,1.274,1.274,0,0,1-.494.465,1.461,1.461,0,0,1-.637.142A1.42,1.42,0,0,1,3.765,4.213Zm30.727.193a4.116,4.116,0,0,1-1.233-.185l-.1-.028V2.032a2.594,2.594,0,0,1-.41.03.985.985,0,0,1-.617-.217.708.708,0,0,1-.279-.59V.839a.712.712,0,0,1,.279-.592,1.018,1.018,0,0,1,.612-.216,2.674,2.674,0,0,1,.831.128l.1.03v1.7a2.218,2.218,0,0,1,.8-.157H34.5a1.386,1.386,0,0,1,.873.286,1,1,0,0,1,.4.826v.409a1.02,1.02,0,0,1-.4.842,1.492,1.492,0,0,1-.886.312ZM33.68,2.438V3.815a3.165,3.165,0,0,0,.812.1.887.887,0,0,0,.555-.181.528.528,0,0,0,.21-.458V2.857a.483.483,0,0,0-.205-.436,1,1,0,0,0-.574-.175A2.1,2.1,0,0,0,33.68,2.438ZM32.466.616a.2.2,0,0,0-.1.211v.437c0,.118.012.148.1.21s.127.066.288.066a2.288,2.288,0,0,0,.41-.038V.586a2.388,2.388,0,0,0-.41-.036C32.593.55,32.545.555,32.466.616ZM48.181,3.622l-.057-.129.445-.27.071.168a.856.856,0,0,0,.816.486c.382,0,.794-.182.794-.606v-.3c0-.43-.412-.616-.781-.616h-.314V1.844h.081c.493,0,.786-.13.786-.628,0-.6-.418-.648-.6-.648a.779.779,0,0,0-.4.1.654.654,0,0,0-.26.3l-.086.164-.411-.3.05-.115A1.063,1.063,0,0,1,48.766.2a1.269,1.269,0,0,1,.661-.179,1.21,1.21,0,0,1,.835.318,1.091,1.091,0,0,1,.3.888,1.036,1.036,0,0,1-.35.8,1.039,1.039,0,0,1,.566.946v.319h0a1.2,1.2,0,0,1-1.318,1.117A1.308,1.308,0,0,1,48.181,3.622Zm-6.673,0-.057-.129.445-.27.071.168a.856.856,0,0,0,.816.486c.382,0,.794-.182.794-.606v-.3c0-.43-.412-.616-.781-.616h-.314V1.844h.081c.493,0,.786-.13.786-.628,0-.6-.418-.648-.6-.648a.779.779,0,0,0-.4.1.655.655,0,0,0-.26.3L42,1.136l-.411-.3.05-.115A1.063,1.063,0,0,1,42.093.2a1.269,1.269,0,0,1,.661-.179,1.21,1.21,0,0,1,.835.318,1.091,1.091,0,0,1,.3.888,1.036,1.036,0,0,1-.35.8,1.039,1.039,0,0,1,.566.946v.319h0a1.2,1.2,0,0,1-1.318,1.117A1.308,1.308,0,0,1,41.508,3.622Zm-41.451,0L0,3.493l.445-.27.071.168a.856.856,0,0,0,.816.486c.382,0,.794-.182.794-.606v-.3c0-.43-.412-.616-.781-.616H1.031V1.844h.081c.493,0,.786-.13.786-.628,0-.6-.418-.648-.6-.648a.779.779,0,0,0-.4.1.655.655,0,0,0-.26.3L.55,1.136.138.834.189.719A1.062,1.062,0,0,1,.642.2,1.269,1.269,0,0,1,1.3.016a1.21,1.21,0,0,1,.835.318,1.091,1.091,0,0,1,.3.888,1.036,1.036,0,0,1-.35.8,1.039,1.039,0,0,1,.566.946v.319h0A1.2,1.2,0,0,1,1.332,4.406,1.308,1.308,0,0,1,.057,3.622Zm70.834.784a1.306,1.306,0,0,1-1.276-.784l-.056-.129L70,3.223l.072.168a.851.851,0,0,0,.815.486h.473c.382,0,.8-.182.8-.606v-.28c0-.431-.414-.615-.783-.615h-.311V1.861h.077c.494,0,.785-.2.785-.6,0-.607-.417-.7-.6-.7a.773.773,0,0,0-.4.107A.606.606,0,0,0,70.7.918a.99.99,0,0,1,.04.265c0,.5-.127,1.288-1.134,1.288s-1.128-.8-1.128-1.288A1.052,1.052,0,0,1,69.609.016a1.023,1.023,0,0,1,.868.392,1.161,1.161,0,0,1,.86-.392,1.207,1.207,0,0,1,.834.318,1.194,1.194,0,0,1,.3.933.966.966,0,0,1-.352.772,1.038,1.038,0,0,1,.57.945v.3a1.2,1.2,0,0,1-1.323,1.117Zm-1.873-3.23v.014c0,.672.364.795.591.795s.592-.085.592-.795V1.176c0-.654-.362-.608-.592-.608h-.09C69.3.567,69.018.6,69.018,1.176ZM62.2,3.271V2.857A1.118,1.118,0,0,1,63.39,1.764c.262,0,.526-.176.526-.617a.6.6,0,0,0-.571-.581.763.763,0,0,0-.4.107.659.659,0,0,0-.261.3l-.084.164-.411-.3.046-.112A1.084,1.084,0,0,1,62.692.2a1.306,1.306,0,0,1,.664-.18,1.2,1.2,0,0,1,.83.318,1.087,1.087,0,0,1,.3.813.816.816,0,0,1-.408.751.993.993,0,0,1,.747.958v.414a1.327,1.327,0,0,1-2.626,0Zm.523-.414v.414c0,.422.41.606.79.606s.788-.184.788-.606V2.857c0-.428-.41-.611-.788-.612S62.721,2.429,62.721,2.857ZM55.368,4.336V1.189a.544.544,0,0,0-.345-.58.933.933,0,0,0-.708-.044.505.505,0,0,0-.391.4.246.246,0,0,0-.005.066v.957h-.487l0-.957a.734.734,0,0,0,0-.076.506.506,0,0,0-.389-.389.935.935,0,0,0-.71.044.545.545,0,0,0-.349.573V4.336H51.46V1.18a1.062,1.062,0,0,1,.38-.867,1.331,1.331,0,0,1,.912-.282,1.834,1.834,0,0,1,.555.1,1.1,1.1,0,0,1,.365.249,1.1,1.1,0,0,1,.364-.249,1.833,1.833,0,0,1,.558-.1A1.309,1.309,0,0,1,55.5.313a1.052,1.052,0,0,1,.383.867V4.336Zm20.1,0V1.176c0-.425-.41-.612-.781-.612s-.789.187-.789.612V4.335h-.529V1.176a1.326,1.326,0,0,1,2.625,0V4.335Zm-63.4,0V1.176c0-.425-.411-.612-.78-.612s-.8.187-.8.612V4.335H9.97V1.176A1.2,1.2,0,0,1,11.291.041,1.187,1.187,0,0,1,12.6,1.176V4.335Z" transform="translate(89 98.401)" fill="#292562" stroke="rgba(0,0,0,0)" stroke-width="1"/>
  </g>
</svg>
